<?xml version="1.0" standalone="no"?>
<!DOCTYPE svg PUBLIC "-//W3C//DTD SVG 20010904//EN"
 "http://www.w3.org/TR/2001/REC-SVG-20010904/DTD/svg10.dtd">
<svg version="1.0" xmlns="http://www.w3.org/2000/svg"
 width="416.000000pt" height="416.000000pt" viewBox="0 0 416.000000 416.000000"
 preserveAspectRatio="xMidYMid meet">

<g transform="translate(0.000000,416.000000) scale(0.100000,-0.100000)"
fill="#000000" stroke="none">
<path d="M2662 2668 c-7 -7 -12 -32 -12 -55 0 -51 -31 -117 -61 -134 -13 -6
-78 -12 -153 -13 -121 -2 -139 -5 -241 -38 -137 -46 -192 -54 -239 -37 -27 10
-41 10 -60 1 -21 -9 -34 -7 -82 15 -74 34 -193 42 -282 19 -35 -9 -79 -16 -97
-16 -25 0 -46 -11 -87 -46 -60 -52 -103 -74 -148 -74 -46 0 -70 -31 -70 -89 0
-61 33 -173 67 -225 21 -32 29 -37 54 -34 38 6 37 -10 -1 -47 -44 -42 -53 -80
-41 -169 15 -110 29 -126 106 -125 17 1 54 -5 83 -11 38 -9 66 -10 104 -2 46
9 55 8 77 -9 40 -31 131 -17 131 20 0 13 18 20 73 30 240 43 274 44 343 10 39
-19 67 -25 144 -27 107 -3 136 6 160 53 8 17 16 32 18 34 1 3 16 -3 32 -13 20
-11 49 -17 88 -16 31 0 78 -2 103 -6 69 -9 111 13 140 72 20 42 23 63 22 149
0 72 -6 117 -20 160 -12 33 -24 84 -27 114 -9 67 -37 142 -71 186 l-26 35 20
39 c47 91 49 188 6 235 -27 29 -36 31 -53 14z m49 -40 c19 -35 14 -118 -9
-171 -11 -26 -26 -47 -32 -47 -9 0 -45 20 -69 37 -3 2 5 13 16 26 34 37 53 84
53 132 0 50 20 62 41 23z m-150 -195 c107 -34 188 -147 205 -285 3 -29 15 -80
26 -113 23 -69 28 -210 9 -266 -6 -20 -22 -46 -35 -58 -47 -45 -146 -36 -146
13 0 14 5 28 11 32 7 4 9 25 7 55 -4 37 -13 57 -40 87 -43 48 -54 97 -33 148
17 42 19 54 6 54 -12 0 -41 -74 -41 -103 1 -29 33 -100 58 -125 10 -10 22 -30
25 -44 6 -23 1 -28 -56 -56 -113 -56 -114 -56 -127 -17 -17 51 -53 75 -112 75
-53 0 -102 20 -112 45 -3 9 -10 13 -16 10 -16 -10 6 -43 40 -60 16 -8 50 -15
75 -15 59 0 83 -13 101 -55 20 -49 18 -63 -15 -96 -27 -27 -35 -29 -100 -29
-79 0 -158 25 -199 62 -17 16 -26 19 -29 11 -3 -7 -11 -13 -18 -13 -9 0 -2 19
20 56 18 30 36 73 40 95 5 28 16 46 38 63 45 35 94 120 113 198 27 108 8 133
-129 172 -36 11 -72 30 -95 50 l-36 34 54 7 c30 4 73 14 95 23 156 58 320 76
416 45z m-765 -44 c43 -16 53 -24 44 -34 -8 -10 -8 -15 1 -21 6 -4 15 0 20 8
5 9 22 21 39 28 25 10 34 10 55 -4 14 -9 32 -28 41 -42 20 -30 69 -56 149 -79
87 -25 98 -38 92 -106 -10 -119 -99 -239 -175 -239 -85 0 -113 50 -117 209 -3
119 -11 156 -40 185 -26 26 -37 8 -14 -24 18 -24 23 -48 29 -162 8 -151 20
-187 76 -220 39 -23 39 -33 -2 -105 -42 -73 -128 -123 -240 -138 -41 -5 -52
-3 -57 9 -4 9 1 17 12 21 20 6 57 43 50 49 -2 2 -33 -13 -69 -35 -119 -71
-245 -97 -329 -68 -45 16 -43 53 4 69 18 6 48 27 65 47 66 75 18 133 -109 133
l-65 0 29 29 c15 17 59 46 96 66 38 20 69 40 69 46 0 16 -22 10 -88 -27 -36
-20 -62 -32 -59 -27 4 6 8 61 10 124 5 135 27 199 88 254 92 82 258 105 395
54z m-441 -66 c-46 -60 -65 -127 -65 -227 0 -84 -15 -131 -40 -131 -34 0 -85
117 -97 221 -5 46 -3 53 18 68 13 9 37 16 54 16 33 0 107 42 139 78 33 38 28
24 -9 -25z m1245 -572 c-5 -11 -7 -27 -4 -35 5 -13 -3 -16 -50 -16 -31 0 -56
4 -56 8 0 7 92 57 113 60 4 1 3 -7 -3 -17z m-1310 -56 c24 -8 28 -60 5 -68
-26 -11 -55 25 -61 78 l-7 50 22 -27 c12 -15 30 -30 41 -33z m393 -67 c3 -12
4 -25 2 -29 -9 -14 -54 -19 -82 -8 l-28 11 45 23 c56 30 56 30 63 3z"/>
<path d="M1320 2091 c0 -23 29 -59 50 -62 46 -5 111 34 91 54 -7 7 -16 6 -28
-5 -33 -30 -70 -27 -83 7 -11 29 -30 33 -30 6z"/>
<path d="M1636 2061 c-9 -14 49 -68 77 -73 32 -6 87 13 101 34 15 25 1 33 -26
14 -34 -24 -80 -20 -108 9 -25 27 -35 30 -44 16z"/>
</g>
</svg>
